<?xml version="1.0" encoding="UTF-8" standalone="no"?>
<!-- Generator: Adobe Illustrator 19.0.0, SVG Export Plug-In . SVG Version: 6.00 Build 0)  -->

<svg
   xmlns:dc="http://purl.org/dc/elements/1.1/"
   xmlns:cc="http://creativecommons.org/ns#"
   xmlns:rdf="http://www.w3.org/1999/02/22-rdf-syntax-ns#"
   xmlns:svg="http://www.w3.org/2000/svg"
   xmlns="http://www.w3.org/2000/svg"
   xmlns:sodipodi="http://sodipodi.sourceforge.net/DTD/sodipodi-0.dtd"
   xmlns:inkscape="http://www.inkscape.org/namespaces/inkscape"
   version="1.1"
   id="Layer_1"
   x="0px"
   y="0px"
   viewBox="0 0 512 512"
   style="enable-background:new 0 0 512 512;"
   width="34"
   height="34"
   xml:space="preserve"
   sodipodi:docname="revolverF.svg"
   inkscape:version="0.92.2 (unknown)"><metadata
     id="metadata3821"><rdf:RDF><cc:Work
         rdf:about=""><dc:format>image/svg+xml</dc:format><dc:type
           rdf:resource="http://purl.org/dc/dcmitype/StillImage" /></cc:Work></rdf:RDF></metadata><defs
     id="defs3819" /><sodipodi:namedview
     pagecolor="#ffffff"
     bordercolor="#666666"
     borderopacity="1"
     objecttolerance="10"
     gridtolerance="10"
     guidetolerance="10"
     inkscape:pageopacity="0"
     inkscape:pageshadow="2"
     inkscape:window-width="1920"
     inkscape:window-height="1056"
     id="namedview3817"
     showgrid="false"
     inkscape:zoom="26.882353"
     inkscape:cx="17"
     inkscape:cy="17"
     inkscape:window-x="1280"
     inkscape:window-y="24"
     inkscape:window-maximized="1"
     inkscape:current-layer="Layer_1" /><g
     id="g3784"
     transform="matrix(-1,0,0,1,514.35708,0)"><g
       id="g3782"><path
         d="M 366.442,121.568 295.63,192.38 286.363,183.113 417.21,52.265 364.943,0 346.466,18.477 333.77,5.78 l -21.527,21.527 12.697,12.697 -90.844,90.844 -17.527,-17.527 -87.498,87.498 -10.764,10.764 -21.16,21.16 21.527,21.527 18.297,-18.297 c 2.801,10.299 0.174,21.78 -7.899,29.852 -45.709,45.709 -45.709,120.081 0,165.79 l 80.383,80.385 93.659,-93.659 -33.94,-33.94 22.015,-22.015 c 26.355,-26.355 29.588,-67.205 9.709,-97.124 l 33.807,-33.807 -17.548,-17.548 70.812,-70.812 z m -205.545,108.215 62.895,-62.895 21.527,21.527 -62.895,62.895 z m 35.819,35.818 62.895,-62.895 21.527,21.527 -62.895,62.895 z m 72.946,75.258 -22.015,22.015 -22.18,-22.18 12.39,-12.39 12.676,12.676 21.527,-21.527 -12.676,-12.676 19.251,-19.251 c 8.417,17.374 5.428,38.932 -8.973,53.333 z"
         id="path3780"
         inkscape:connector-curvature="0"
         style="fill:#ffffff;stroke:#000000;stroke-width:15" /></g></g><g
     id="g3786"
     transform="matrix(-1,0,0,1,514.35708,0)" /><g
     id="g3788"
     transform="matrix(-1,0,0,1,514.35708,0)" /><g
     id="g3790"
     transform="matrix(-1,0,0,1,514.35708,0)" /><g
     id="g3792"
     transform="matrix(-1,0,0,1,514.35708,0)" /><g
     id="g3794"
     transform="matrix(-1,0,0,1,514.35708,0)" /><g
     id="g3796"
     transform="matrix(-1,0,0,1,514.35708,0)" /><g
     id="g3798"
     transform="matrix(-1,0,0,1,514.35708,0)" /><g
     id="g3800"
     transform="matrix(-1,0,0,1,514.35708,0)" /><g
     id="g3802"
     transform="matrix(-1,0,0,1,514.35708,0)" /><g
     id="g3804"
     transform="matrix(-1,0,0,1,514.35708,0)" /><g
     id="g3806"
     transform="matrix(-1,0,0,1,514.35708,0)" /><g
     id="g3808"
     transform="matrix(-1,0,0,1,514.35708,0)" /><g
     id="g3810"
     transform="matrix(-1,0,0,1,514.35708,0)" /><g
     id="g3812"
     transform="matrix(-1,0,0,1,514.35708,0)" /><g
     id="g3814"
     transform="matrix(-1,0,0,1,514.35708,0)" /></svg>